<svg height="35" viewBox="0 0 390 80" fill="none" xmlns="http://www.w3.org/2000/svg">
    <path
        d="M65.8197 0H13.5823C6.08098 0 0 6.12678 0 13.6845V66.3155C0 73.8732 6.08098 80 13.5823 80H65.8197C73.321 80 79.402 73.8732 79.402 66.3155V13.6845C79.402 6.12678 73.321 0 65.8197 0Z"
        fill="url(#paint0_linear_3_2)" />
    <path
        d="M27.605 23.402V61.6061H25.6574C22.8038 61.6061 20.4921 59.2343 20.4921 56.2995V28.7086C20.4921 25.7823 22.8038 23.402 25.6574 23.402H27.605Z"
        fill="white" />
    <path
        d="M35.488 57.0758C33.8199 55.7108 33.3287 54.3287 33.3287 52.5456C33.3287 50.7625 34.0062 49.2866 35.6658 47.9215L48.0541 37.752C49.5529 38.7843 47.4529 47.4864 47.4529 47.4864L35.4795 57.0844L35.488 57.0758Z"
        fill="white" />
    <path
        d="M27.605 66.1448V72.3473H25.6574C22.8038 72.3473 20.4921 69.9584 20.4921 67.0151V60.8127C20.4921 63.756 22.8038 66.1448 25.6574 66.1448H27.605Z"
        fill="white" />
    <path
        d="M51.797 40.3285C50.112 43.3316 47.995 46.9831 47.9273 47.094C47.9696 47.0002 48.8926 44.7905 50.5353 40.2091C51.4414 37.6752 50.8571 37.0524 49.2228 35.8068C48.9434 35.5935 39.6458 28.2906 32.8378 22.9413V19.6311C40.0438 25.4837 50.1204 33.6739 50.4845 33.947C52.7793 35.6959 53.8547 36.6514 51.797 40.32V40.3285Z"
        fill="white" />
    <path
        d="M56.3444 37.6325C54.346 40.1152 48.1899 46.8124 47.9444 47.094C47.9444 47.094 51.9411 41.3352 54.6847 37.5131C56.3613 35.1754 54.1851 33.964 52.5508 32.7184C52.2121 32.4624 39.1718 22.344 32.8549 17.4384V13.386C39.9508 19.1191 54.8202 31.1486 55.252 31.4813C57.5468 33.2303 58.6222 34.8171 56.3528 37.641L56.3444 37.6325Z"
        fill="white" />
    <path
        d="M59.5707 37.7264C56.734 40.0128 48.207 46.8807 47.936 47.094C48.2578 46.7783 58.3259 37.5216 59.5961 35.3546C61.0526 32.8805 59.1134 32.4539 57.1151 30.6367C56.8272 30.3722 41.4582 17.8223 32.8296 10.7668V7.2518C42.4913 15.2117 60.011 29.6385 60.9933 30.3807C63.6098 32.36 63.0425 34.911 59.5538 37.7178L59.5707 37.7264Z"
        fill="white" />
    <path
        d="M96.436 6.66669H111.364C115.228 6.66669 118.094 7.5264 119.945 9.24583C121.795 10.9653 122.725 13.2933 122.725 16.2395C122.725 19.4562 121.699 21.8614 119.638 23.4553C117.576 25.0491 114.825 25.8509 111.364 25.8509L102.399 25.8123V36.4862H96.436V6.66669ZM102.409 11.4096V21.4654L110.769 21.504C112.802 21.504 114.298 21.05 115.275 20.1517C116.253 19.2533 116.733 18.0169 116.733 16.4327C116.733 14.7132 116.196 13.4478 115.132 12.6267C114.058 11.8057 112.61 11.4 110.769 11.4H102.409V11.4096Z"
        fill="white" />
    <path
        d="M125.812 14.7132H131.009L131.248 18.3549H131.488C131.948 17.1282 132.706 16.1622 133.76 15.4474C134.815 14.7422 136.071 14.3848 137.538 14.3848C138.353 14.3848 138.966 14.4428 139.407 14.549V19.7846C138.727 19.6493 138.065 19.5817 137.423 19.5817C135.687 19.5817 134.297 20.0454 133.243 20.9727C132.188 21.9001 131.632 23.3683 131.574 25.3872V36.4669H125.812V14.7132Z"
        fill="white" />
    <path
        d="M146.435 35.5299C144.517 34.6316 143.021 33.3372 141.948 31.6467C140.874 29.9563 140.347 27.9374 140.347 25.5997C140.347 23.2621 140.874 21.2432 141.928 19.5721C142.983 17.8913 144.469 16.5969 146.396 15.6888C148.314 14.7808 150.557 14.3172 153.136 14.3172C155.715 14.3172 157.949 14.7615 159.876 15.6695C161.794 16.5679 163.289 17.8526 164.344 19.5334C165.399 21.2142 165.926 23.2331 165.926 25.6094C165.926 27.9857 165.399 29.9273 164.344 31.6177C163.289 33.3082 161.803 34.6122 159.895 35.5203C157.988 36.4379 155.735 36.8919 153.136 36.8919C150.538 36.8919 148.362 36.4379 146.444 35.5396L146.435 35.5299ZM158.275 30.5358C159.522 29.3091 160.145 27.6572 160.145 25.5901C160.145 23.5229 159.531 21.8324 158.294 20.625C157.058 19.4175 155.341 18.8089 153.117 18.8089C150.893 18.8089 149.215 19.4272 147.988 20.6443C146.761 21.8614 146.137 23.5229 146.137 25.5901C146.137 27.6572 146.751 29.3091 147.988 30.5358C149.225 31.7626 150.931 32.3712 153.117 32.3712C155.303 32.3712 157.029 31.753 158.275 30.5358Z"
        fill="white" />
    <path
        d="M172.341 41.8474C170.461 40.6109 169.416 38.9205 169.196 36.7953H174.67C174.891 37.7999 175.485 38.5534 176.473 39.0461C177.46 39.5387 178.735 39.7802 180.308 39.7802C182.254 39.7802 183.817 39.4035 184.996 38.6403C186.175 37.8772 186.76 36.6118 186.76 34.8344V31.0768H186.521C185.869 32.3615 184.804 33.3565 183.338 34.0616C181.861 34.7668 180.25 35.1242 178.486 35.1242C176.425 35.1242 174.642 34.6992 173.127 33.8395C171.612 32.9797 170.442 31.7723 169.618 30.1977C168.793 28.6329 168.381 26.8168 168.381 24.74C168.381 22.6632 168.812 20.8182 169.675 19.2629C170.538 17.7077 171.746 16.5003 173.29 15.6212C174.833 14.7519 176.617 14.3172 178.649 14.3172C180.49 14.3172 182.101 14.6746 183.481 15.3991C184.862 16.1235 185.888 17.0992 186.568 18.326H186.856L187.096 14.7325H192.532V34.1486C192.532 37.23 191.516 39.587 189.474 41.2388C187.431 42.8906 184.354 43.7117 180.241 43.7117C176.856 43.7117 174.229 43.0935 172.35 41.8474H172.341ZM185.044 29.2897C186.195 28.2658 186.77 26.9714 186.77 25.3872V24.2474C186.77 22.5859 186.204 21.2239 185.082 20.1613C183.961 19.0987 182.436 18.5674 180.519 18.5674C178.601 18.5674 177.058 19.1277 175.917 20.2482C174.766 21.3688 174.191 22.8564 174.191 24.7014C174.191 26.5464 174.757 28.1112 175.898 29.1931C177.029 30.2847 178.544 30.8256 180.442 30.8256C182.34 30.8256 183.894 30.3137 185.044 29.2897Z"
        fill="white" />
    <path
        d="M196.789 14.7132H201.985L202.225 18.3549H202.465C202.925 17.1282 203.682 16.1622 204.737 15.4474C205.791 14.7422 207.047 14.3848 208.514 14.3848C209.329 14.3848 209.943 14.4428 210.384 14.549V19.7846C209.703 19.6493 209.042 19.5817 208.399 19.5817C206.664 19.5817 205.274 20.0454 204.219 20.9727C203.164 21.9001 202.608 23.3683 202.551 25.3872V36.4669H196.789V14.7132Z"
        fill="white" />
    <path
        d="M216.404 35.4816C214.794 34.5543 213.547 33.2502 212.656 31.5598C211.764 29.8693 211.313 27.8794 211.313 25.59C211.313 23.3007 211.764 21.2721 212.656 19.601C213.547 17.9202 214.803 16.6258 216.404 15.7178C218.015 14.8001 219.875 14.3461 221.984 14.3461C224.094 14.3461 225.944 14.7325 227.363 15.4956C228.782 16.2588 229.808 17.244 230.431 18.4419H230.718L230.881 14.7229H236.356V36.4765H230.594V32.5933H230.306C229.635 33.8974 228.552 34.9407 227.056 35.7231C225.57 36.4959 223.873 36.8919 221.984 36.8919C219.875 36.8919 218.015 36.4283 216.404 35.5009V35.4816ZM227.401 31.5598C228.417 30.9898 229.194 30.2364 229.731 29.2897C230.268 28.3527 230.546 27.3095 230.546 26.16V24.8559C230.546 23.7354 230.277 22.7211 229.731 21.8131C229.184 20.9051 228.417 20.1709 227.401 19.6203C226.385 19.0794 225.158 18.7993 223.729 18.7993C221.754 18.7993 220.163 19.3885 218.945 20.5573C217.727 21.7262 217.123 23.4069 217.123 25.59C217.123 27.7731 217.737 29.3863 218.945 30.5938C220.153 31.8012 221.754 32.4098 223.729 32.4098C225.158 32.4098 226.385 32.12 227.401 31.5501V31.5598Z"
        fill="white" />
    <path
        d="M240.651 14.7132H246.212L246.414 18.6351H246.74C247.439 17.2441 248.475 16.1718 249.846 15.428C251.217 14.6842 252.77 14.3075 254.534 14.3075C256.452 14.3075 258.101 14.7422 259.462 15.6116C260.824 16.4809 261.792 17.7271 262.367 19.3306H262.732C263.546 17.5822 264.697 16.3167 266.183 15.5053C267.669 14.6939 269.366 14.2979 271.255 14.2979C274.074 14.2979 276.25 15.1189 277.813 16.7514C279.366 18.3839 280.142 20.9051 280.142 24.315V36.4572H274.38V25.0878C274.38 23.1558 274.016 21.6103 273.287 20.4704C272.559 19.3209 271.216 18.751 269.27 18.751C267.429 18.751 265.972 19.3402 264.889 20.5284C263.805 21.7165 263.268 23.2428 263.268 25.1264V36.4476H257.506V25.2423C257.506 23.1945 257.123 21.6006 256.346 20.4608C255.57 19.3112 254.266 18.7413 252.425 18.7413C250.584 18.7413 249.06 19.3306 248.005 20.5187C246.95 21.7069 246.423 23.2331 246.423 25.1167V36.4379H240.661V14.6842L240.651 14.7132Z"
        fill="white" />
    <path
        d="M284.438 14.7132H289.998L290.2 18.6351H290.526C291.226 17.2441 292.261 16.1718 293.632 15.428C295.003 14.6842 296.556 14.3075 298.32 14.3075C300.238 14.3075 301.887 14.7422 303.248 15.6116C304.61 16.4809 305.578 17.7271 306.153 19.3306H306.518C307.333 17.5822 308.483 16.3167 309.969 15.5053C311.455 14.6939 313.152 14.2979 315.041 14.2979C317.86 14.2979 320.036 15.1189 321.599 16.7514C323.152 18.3839 323.929 20.9051 323.929 24.315V36.4572H318.167V25.0878C318.167 23.1558 317.802 21.6103 317.074 20.4704C316.345 19.3209 315.003 18.751 313.056 18.751C311.216 18.751 309.758 19.3402 308.675 20.5284C307.592 21.7165 307.055 23.2428 307.055 25.1264V36.4476H301.293V25.2423C301.293 23.1945 300.909 21.6006 300.132 20.4608C299.356 19.3112 298.052 18.7413 296.211 18.7413C294.37 18.7413 292.846 19.3306 291.791 20.5187C290.737 21.7069 290.209 23.2331 290.209 25.1167V36.4379H284.447V14.6842L284.438 14.7132Z"
        fill="white" />
    <path d="M328.223 6.66669H333.985V11.6511H328.223V6.66669ZM328.223 14.7132H333.985V36.4669H328.223V14.7132Z"
        fill="white" />
    <path
        d="M338.281 14.7132H343.842L344.043 18.7993H344.369C345.098 17.36 346.239 16.2395 347.782 15.4667C349.326 14.6939 350.965 14.2979 352.691 14.2979C354.561 14.2979 356.19 14.6166 357.6 15.2542C359.009 15.8917 360.112 16.9543 360.907 18.4419C361.703 19.9295 362.106 21.9483 362.106 24.5178V36.4572H356.344V25.5418C356.344 23.3104 355.912 21.6199 355.049 20.4704C354.187 19.3209 352.768 18.751 350.793 18.751C348.818 18.751 347.13 19.3885 345.903 20.6733C344.676 21.958 344.053 23.6002 344.053 25.619V36.4572H338.29V14.7036L338.281 14.7132Z"
        fill="white" />
    <path
        d="M369.057 41.8474C367.178 40.6109 366.133 38.9205 365.912 36.7953H371.387C371.607 37.7999 372.202 38.5534 373.189 39.0461C374.177 39.5387 375.452 39.7802 377.024 39.7802C378.97 39.7802 380.533 39.4035 381.712 38.6403C382.892 37.8772 383.477 36.6118 383.477 34.8344V31.0768H383.237C382.585 32.3615 381.521 33.3565 380.054 34.0616C378.577 34.7668 376.967 35.1242 375.203 35.1242C373.141 35.1242 371.358 34.6992 369.843 33.8395C368.328 32.9797 367.159 31.7723 366.334 30.1977C365.51 28.6329 365.097 26.8168 365.097 24.74C365.097 22.6632 365.529 20.8182 366.392 19.2629C367.254 17.7077 368.463 16.5003 370.006 15.6212C371.55 14.7519 373.333 14.3172 375.366 14.3172C377.206 14.3172 378.817 14.6746 380.198 15.3991C381.578 16.1235 382.604 17.0992 383.285 18.326H383.572L383.812 14.7325H389.248V34.1486C389.248 37.23 388.232 39.587 386.19 41.2388C384.148 42.8906 381.07 43.7117 376.957 43.7117C373.573 43.7117 370.946 43.0935 369.067 41.8474H369.057ZM381.76 29.2897C382.911 28.2658 383.486 26.9714 383.486 25.3872V24.2474C383.486 22.5859 382.92 21.2239 381.799 20.1613C380.677 19.0987 379.153 18.5674 377.235 18.5674C375.318 18.5674 373.774 19.1277 372.633 20.2482C371.483 21.3688 370.907 22.8564 370.907 24.7014C370.907 26.5464 371.473 28.1112 372.614 29.1931C373.745 30.2847 375.26 30.8256 377.158 30.8256C379.057 30.8256 380.61 30.3137 381.76 29.2897Z"
        fill="white" />
    <path
        d="M96.0145 45.7209H101.978V58.0274H119.59V45.7209H125.554V75.5211H119.59V62.8089H101.978V75.5211H96.0145V45.7209Z"
        fill="white" />
    <path
        d="M135.276 74.5359C133.368 73.6375 131.891 72.3528 130.856 70.6913C129.811 69.0298 129.293 67.0399 129.293 64.7216C129.293 62.4032 129.82 60.3554 130.875 58.6553C131.93 56.9552 133.406 55.6415 135.295 54.7334C137.193 53.8254 139.408 53.3618 141.948 53.3618C144.623 53.3618 146.905 53.8544 148.784 54.8494C150.664 55.8443 152.073 57.2643 153.003 59.119C153.933 60.9736 154.307 63.205 154.115 65.8228H135.045C135.103 67.7354 135.765 69.2134 137.03 70.2759C138.305 71.3385 140.002 71.8698 142.14 71.8698C143.818 71.8698 145.227 71.58 146.378 70.9907C147.528 70.4015 148.267 69.6384 148.593 68.6821H154.029C153.808 70.131 153.156 71.3868 152.063 72.459C150.97 73.5409 149.551 74.3716 147.826 74.9705C146.09 75.5694 144.154 75.8689 142.025 75.8689C139.427 75.8689 137.174 75.4149 135.266 74.5165L135.276 74.5359ZM137.183 58.7809C135.975 59.6985 135.256 60.9543 135.007 62.5675H148.439C148.334 60.9543 147.711 59.6985 146.57 58.7809C145.429 57.8632 143.876 57.4092 141.901 57.4092C139.926 57.4092 138.382 57.8632 137.174 58.7809H137.183Z"
        fill="white" />
    <path
        d="M157.538 53.7675H162.734L162.974 57.4092H163.213C163.674 56.1824 164.431 55.2165 165.486 54.5113C166.54 53.8061 167.796 53.4487 169.263 53.4487C170.078 53.4487 170.692 53.5067 171.133 53.6129V58.8485C170.452 58.7133 169.79 58.6457 169.148 58.6457C167.413 58.6457 166.023 59.1093 164.968 60.0367C163.913 60.964 163.357 62.4323 163.3 64.4512V75.5308H157.538V53.7772V53.7675Z"
        fill="white" />
    <path
        d="M178.15 74.5841C176.233 73.6858 174.737 72.3914 173.663 70.7009C172.59 69.0105 172.062 66.9916 172.062 64.6539C172.062 62.3163 172.59 60.2974 173.644 58.6263C174.699 56.9455 176.185 55.6511 178.112 54.743C180.03 53.835 182.273 53.3714 184.852 53.3714C187.431 53.3714 189.665 53.8157 191.592 54.7237C193.519 55.6317 195.005 56.9165 196.06 58.5876C197.115 60.2684 197.642 62.2873 197.642 64.6539C197.642 67.0205 197.115 68.9718 196.06 70.6623C195.005 72.3527 193.519 73.6568 191.611 74.5648C189.703 75.4825 187.45 75.9365 184.852 75.9365C182.254 75.9365 180.078 75.4825 178.16 74.5841H178.15ZM190.001 69.59C191.247 68.3633 191.87 66.7114 191.87 64.6443C191.87 62.5771 191.257 60.8866 190.02 59.6792C188.783 58.4717 187.067 57.8631 184.843 57.8631C182.618 57.8631 180.94 58.4814 179.713 59.6985C178.486 60.9156 177.863 62.5771 177.863 64.6443C177.863 66.7114 178.476 68.3633 179.713 69.59C180.94 70.8168 182.657 71.4254 184.843 71.4254C187.028 71.4254 188.754 70.8168 190.001 69.59Z"
        fill="white" />
    <defs>
        <linearGradient id="paint0_linear_3_2" x1="4.52177" y1="79.0871" x2="70.9436" y2="6.39129"
            gradientUnits="userSpaceOnUse">
            <stop stop-color="#5C53FE" />
            <stop offset="0.15" stop-color="#664CF9" />
            <stop offset="0.41" stop-color="#8439EE" />
            <stop offset="0.74" stop-color="#B31BDD" />
            <stop offset="1" stop-color="#DC02CE" />
        </linearGradient>
    </defs>
</svg>